<?xml version="1.0" encoding="UTF-8"?>
<svg id="Base" xmlns="http://www.w3.org/2000/svg" viewBox="0 0 355.31 356.95">
  <defs>
    <style>
      .cls-1 {
        fill: #231f20;
      }
    </style>
  </defs>
  <path class="cls-1" d="M145.09,172.81h27.81v-25.08c-8.88-.19-17.59-.8-25.56-1.6-1.12,8.36-1.99,17.48-2.25,26.68Z"/>
  <path class="cls-1" d="M147.34,210.45c7.97-.8,16.68-1.41,25.56-1.6v-25.04h-27.81c.26,9.23,1.13,18.33,2.25,26.64Z"/>
  <path class="cls-1" d="M153.88,244.61c6,2.22,12.39,3.63,19.02,4.14v-28.89c-8.24,.18-16.38,.76-23.89,1.5,1.82,10.65,3.81,19.05,4.87,23.25Z"/>
  <path class="cls-1" d="M148.99,135.23c7.52,.75,15.67,1.32,23.91,1.51v-29.36c-6.64,.51-13.03,1.92-19.03,4.14-1.07,4.33-3.05,12.9-4.88,23.71Z"/>
  <path class="cls-1" d="M124.51,132.03c3.83,.62,8.4,1.3,13.5,1.95,1.04-6.21,2.13-11.73,3.1-16.22-6.25,3.88-11.84,8.7-16.6,14.26Z"/>
  <path class="cls-1" d="M136.38,144.88c-7.81-1-14.39-2.07-19.01-2.89-5.43,9.16-8.85,19.63-9.68,30.82h26.39c.26-9.69,1.14-19.22,2.3-27.93Z"/>
  <path class="cls-1" d="M124.86,224.5c4.68,5.38,10.14,10.06,16.22,13.84-.96-4.36-2.03-9.71-3.05-15.74-4.95,.63-9.41,1.3-13.17,1.9Z"/>
  <path class="cls-1" d="M203.56,111.77c-6.19-2.36-12.79-3.86-19.66-4.39v29.36c8.45-.19,16.79-.79,24.47-1.56-1.79-10.57-3.72-19.01-4.81-23.41Z"/>
  <path class="cls-1" d="M134.08,183.81h-26.35c.9,11.17,4.39,21.62,9.88,30.74,4.61-.81,11.1-1.87,18.77-2.85-1.16-8.66-2.05-18.17-2.3-27.89Z"/>
  <path class="cls-1" d="M220.97,144.81c1.16,8.73,2.05,18.28,2.31,28h25.83c-.82-11.19-4.24-21.67-9.68-30.82-4.51,.8-10.89,1.84-18.46,2.82Z"/>
  <path class="cls-1" d="M216.37,237.92c5.82-3.7,11.06-8.23,15.57-13.42-3.61-.58-7.89-1.22-12.62-1.83-.98,5.81-2.02,10.98-2.95,15.24Z"/>
  <path class="cls-1" d="M220.97,211.77c7.43,.96,13.72,1.99,18.22,2.78,5.49-9.12,8.98-19.57,9.88-30.74h-25.78c-.25,9.75-1.15,19.28-2.31,27.96Z"/>
  <path class="cls-1" d="M210.02,146.08c-8.12,.83-17.03,1.47-26.12,1.66v25.08h28.38c-.26-9.22-1.13-18.36-2.26-26.73Z"/>
  <path class="cls-1" d="M232.29,132.03c-4.59-5.37-9.96-10.04-15.95-13.84,.95,4.39,2,9.73,3,15.72,4.88-.63,9.26-1.29,12.95-1.88Z"/>
  <path class="cls-1" d="M178.4,1.15C80.69,1.15,1.49,80.36,1.49,178.06s79.21,176.91,176.91,176.91,176.91-79.21,176.91-176.91S276.1,1.15,178.4,1.15Zm0,263.83c-47.93,0-86.92-38.99-86.92-86.92s38.99-86.92,86.92-86.92,86.92,38.99,86.92,86.92-38.99,86.92-86.92,86.92Z"/>
  <path class="cls-1" d="M183.9,248.75c6.87-.53,13.46-2.03,19.65-4.39,1.07-4.28,3-12.53,4.79-22.95-7.67-.77-16-1.37-24.44-1.56v28.89Z"/>
  <path class="cls-1" d="M183.9,208.85c9.09,.19,17.99,.83,26.12,1.66,1.13-8.33,2.01-17.45,2.26-26.69h-28.38v25.04Z"/>
</svg>