<?xml version="1.0" encoding="UTF-8"?>
<svg id="Base" xmlns="http://www.w3.org/2000/svg" viewBox="0 0 357.8 355.97">
  <defs>
    <style>
      .cls-1 {
        fill: #231f20;
      }
    </style>
  </defs>
  <path class="cls-1" d="M102.1,209.11H254.66V116.76H102.1v92.35Zm99.95-51.91l-13.87,7.03,13.87,13.87-8.51,8.51-13.87-13.87-7.03,13.87-17.93-47.33,47.33,17.93Z"/>
  <path class="cls-1" d="M178.38,2.45C80.67,2.45,1.47,81.65,1.47,179.36s79.21,176.91,176.91,176.91,176.91-79.21,176.91-176.91S276.08,2.45,178.38,2.45Zm105.19,244.41c0,4.88-4.14,8.85-9.23,8.85H82.43c-5.09,0-9.23-3.97-9.23-8.85v-6.48h88.11l.26,.62c.8,1.89,2.76,3.16,4.89,3.16h23.85c2.13,0,4.1-1.27,4.89-3.16l.26-.62h88.11v6.48Zm-210.37-13.48l12.48-14.35c1.15-1.33,2.66-2.24,4.34-2.65-.44-1.07-.67-2.21-.67-3.37V112.88c0-4.89,3.97-8.87,8.86-8.87h160.36c4.89,0,8.86,3.98,8.86,8.87v100.13c0,1.16-.23,2.3-.67,3.37,1.68,.41,3.19,1.33,4.34,2.66l12.48,14.35H73.19Z"/>
</svg>