<?xml version="1.0" encoding="UTF-8"?>
<svg id="Base" xmlns="http://www.w3.org/2000/svg" viewBox="0 0 353.82 355.97">
  <defs>
    <style>
      .cls-1 {
        fill: #231f20;
      }
    </style>
  </defs>
  <path class="cls-1" d="M176.18,135.9c-3.97,0-7.19,3.22-7.19,7.19s3.22,7.19,7.19,7.19,7.19-3.22,7.19-7.19-3.22-7.19-7.19-7.19Z"/>
  <path class="cls-1" d="M220.94,135.9c-3.97,0-7.19,3.22-7.19,7.19s3.22,7.19,7.19,7.19,7.19-3.22,7.19-7.19-3.22-7.19-7.19-7.19Z"/>
  <path class="cls-1" d="M198.56,135.9c-3.97,0-7.19,3.22-7.19,7.19s3.22,7.19,7.19,7.19,7.19-3.22,7.19-7.19-3.22-7.19-7.19-7.19Z"/>
  <path class="cls-1" d="M176.91,2.45C79.21,2.45,0,81.65,0,179.36s79.21,176.91,176.91,176.91,176.91-79.21,176.91-176.91S274.61,2.45,176.91,2.45Zm48.39,214.56c0,8.6-6.96,15.57-15.56,15.57H125.09l-31.94,16.51v-18.54c-4.72-2.67-7.92-7.72-7.92-13.54v-55.5c0-8.6,6.97-15.57,15.57-15.57h15.72v34.76c0,15.2,12.37,27.56,27.57,27.56h81.21v8.75Zm43.29-36.31c0,5.81-3.2,10.86-7.92,13.53v18.55l-31.93-16.52h-84.66c-8.6,0-15.56-6.97-15.56-15.56v-55.51c0-8.6,6.97-15.56,15.56-15.56h108.94c8.6,0,15.56,6.97,15.56,15.56v55.51Z"/>
</svg>