<?xml version="1.0" encoding="UTF-8"?>
<svg id="Base" xmlns="http://www.w3.org/2000/svg" viewBox="0 0 358.69 356.95">
  <defs>
    <style>
      .cls-1 {
        fill: #231f20;
      }
    </style>
  </defs>
  <path class="cls-1" d="M168.75,158.02c-8.63,6.42-13.28,18.37-11.85,30.45,.68,5.76,4.57,11.48,9.67,14.21,4.5,2.42,9.36,2.34,14.46-.23,8.43-4.26,12.88-14.69,14.12-18.03,.26-10.96,.91-22.44,1.36-29.46-3.33-1.04-6.53-1.66-9.58-1.88-6.95-.49-13.1,1.16-18.18,4.94Z"/>
  <path class="cls-1" d="M179.74,1.15C82.04,1.15,2.83,80.36,2.83,178.06s79.21,176.91,176.91,176.91,176.91-79.21,176.91-176.91S277.45,1.15,179.74,1.15Zm65.2,212.73c-9.17,8.43-21.06,10.62-31.8,5.86-5.06-2.24-9.29-5.82-12.38-10.25-3.14,3.47-6.98,6.69-11.62,9.03-10.35,5.22-21.38,5.23-31.08,.02-10.36-5.56-17.65-16.27-19.03-27.96-2.18-18.36,5.27-36.81,18.98-47.01,13.85-10.31,32.15-11.35,51.52-2.94l5.86,2.55-.47,6.38c-.02,.23-1.73,23.55-1.87,41.43-.04,5.46,2.86,10.29,7.39,12.3,2.38,1.05,7.14,2.11,12.32-2.66,15.28-14.05,13.89-52.11,1.72-69.22-12.24-17.22-31.13-24.9-56.14-22.82-37.62,3.13-65.63,36.85-62.45,75.18,1.55,18.59,10.11,35.48,24.12,47.54,13.97,12.03,31.68,17.81,49.88,16.3,9.81-.81,19.1-3.67,27.61-8.49l8.87,15.66c-10.8,6.11-22.57,9.74-34.99,10.77-4.45,.37-8.88,.4-13.25,.09-18.27-1.29-35.61-8.42-49.86-20.69-17.61-15.16-28.38-36.36-30.32-59.69-4.01-48.22,31.39-90.66,78.9-94.61,31.33-2.6,56.34,7.88,72.3,30.33,16.87,23.73,18.27,72.23-4.21,92.9Z"/>
</svg>