<?xml version="1.0" encoding="UTF-8"?>
<svg id="Base" xmlns="http://www.w3.org/2000/svg" viewBox="0 0 357.79 353.82">
  <defs>
    <style>
      .cls-1 {
        fill: #231f20;
      }
    </style>
  </defs>
  <path class="cls-1" d="M179.45,0C81.74,0,2.54,79.21,2.54,176.91s79.21,176.91,176.91,176.91,176.91-79.21,176.91-176.91S277.15,0,179.45,0Zm56.97,258.21c-4.32,1.21-9.07,1.83-14.14,1.83h0c-25.92,0-57.2-15.81-83.68-42.28-16.44-16.44-28.84-34.66-35.87-52.7-6.47-16.61-8.1-32.63-4.59-45.12,4.79-17.06,16.59-25.85,35.07-26.15,7.92,0,10.54,15.48,11.83,27.13l.04,.38c.82,7.39,2.54,22.76-5.85,24.93-5.6,1.45-10.13,2.67-11.87,3.15-.66,3.71,3.98,17.5,33.05,46.57,24.41,24.41,39.68,33.1,45.83,33.1,.3,0,.54-.02,.74-.06,.47-1.74,1.7-6.27,3.14-11.87,1.12-4.35,6.05-6.56,14.65-6.56,3.87,0,7.72,.43,10.26,.71l.39,.04c11.71,1.3,27.25,3.94,27.13,11.83-.29,18.48-9.09,30.28-26.15,35.07Z"/>
</svg>